<svg width="42" height="39" viewBox="0 0 42 39" fill="none" xmlns="http://www.w3.org/2000/svg">
<path d="M20.8396 24.7206C20.4614 24.7206 20.1526 25.0199 20.1526 25.3917V26.7163C20.1526 27.0881 20.4614 27.3873 20.8396 27.3873C21.2178 27.3873 21.5265 27.0881 21.5265 26.7163V25.3917C21.5265 25.0199 21.2178 24.7206 20.8396 24.7206Z" fill="white" stroke="white" stroke-width="0.1"/>
<path d="M38.0583 17.2629L38.0583 17.2629C37.6074 14.8481 36.5963 12.5715 35.1339 10.6787C33.7257 8.85629 31.9233 7.42115 29.9128 6.51646C29.5845 5.02125 28.8954 3.47836 27.5408 2.31616C26.2226 1.18525 24.8947 0.966996 24.8346 0.957565L24.8346 0.957555C24.6361 0.926667 24.4354 0.991433 24.2851 1.13376C24.135 1.27585 24.0498 1.48083 24.0498 1.69546V5.40114H21.8265C21.2394 3.26117 19.4189 1.69187 17.2634 1.69187C15.0602 1.69187 13.2061 3.33081 12.6621 5.54343C9.51272 6.02051 6.61722 7.69058 4.46739 10.2807L4.50586 10.3126L4.46738 10.2807C2.19884 13.0141 0.95 16.5517 0.95 20.2419C0.95 28.514 4.88238 35.2429 6.08761 37.1081C6.46791 37.6968 7.09205 38.05 7.7582 38.05H10.4692C11.6013 38.05 12.515 37.0458 12.515 35.8208V34.9171C13.1849 35.0265 13.8649 35.0826 14.5457 35.0826H20.6528V35.8208C20.6528 37.0458 21.5665 38.05 22.6986 38.05H25.6765C26.6382 38.05 27.4771 37.3056 27.677 36.287L27.9978 34.6522C32.1764 33.53 35.5351 30.3297 37.1974 26.1805H39.6837C40.4412 26.1805 41.05 25.5091 41.05 24.6931V18.7582C41.05 18.3622 40.9088 17.9891 40.6512 17.7079C40.3937 17.4267 40.0501 17.2708 39.6838 17.2708H39.6837H39.6837H39.6837H39.6836H39.6836H39.6836H39.6835L38.0606 17.271C38.0596 17.2685 38.0588 17.2657 38.0583 17.2629ZM39.6762 24.643H39.6761V24.6894H37.7089C38.046 23.5187 38.2537 22.2892 38.3139 21.0221C38.3332 20.6153 38.0463 20.2609 37.6636 20.2392L37.6635 20.2392C37.2805 20.218 36.9611 20.5382 36.9418 20.9453C36.6743 26.5762 33.1826 31.3848 28.3204 33.0084L29.1938 28.5578C29.2721 28.1594 29.0404 27.7612 28.6668 27.6738C28.2916 27.5857 27.9284 27.8478 27.8501 28.2472L26.3332 35.9762C26.2664 36.3168 25.9877 36.5589 25.6765 36.5589H22.6984C22.3321 36.5589 22.0266 36.2319 22.0266 35.8207V32.8532C22.0266 32.4457 21.7231 32.1077 21.3396 32.1077C20.9562 32.1077 20.6527 32.4457 20.6527 32.8532V33.5915H14.5455C13.8637 33.5915 13.1831 33.5287 12.5148 33.4069L12.5148 28.4022C12.5148 27.9947 12.2113 27.6567 11.8279 27.6567C11.4444 27.6567 11.1409 27.9947 11.1409 28.4022L11.1409 35.8208C11.1409 36.232 10.8354 36.559 10.4691 36.559H7.7582C7.538 36.559 7.33918 36.4482 7.21255 36.2521L7.17055 36.2792L7.21254 36.2521C6.06564 34.4768 2.32391 28.0756 2.32391 20.2418C2.32391 16.9199 3.44803 13.7368 5.48824 11.2787C7.34223 9.04473 9.81081 7.5736 12.5035 7.07846C12.5182 7.51705 12.5837 7.95066 12.6971 8.3685H12.5074C12.124 8.3685 11.8205 8.70648 11.8205 9.114C11.8205 9.52151 12.124 9.8595 12.5074 9.8595H22.0191C22.4026 9.8595 22.7061 9.52151 22.7061 9.114C22.7061 8.70648 22.4026 8.3685 22.0191 8.3685H21.8294C21.959 7.89155 22.0263 7.39413 22.0266 6.89205H24.0498V8.37209C24.0498 8.77961 24.3533 9.11759 24.7367 9.11759C25.1202 9.11759 25.4237 8.77961 25.4237 8.37209V2.68408C26.0175 2.94076 26.8415 3.44286 27.5272 4.40069C28.2397 5.39592 28.8056 6.88687 28.8056 9.11408C28.8056 9.5216 29.1091 9.85958 29.4926 9.85958C29.876 9.85958 30.1795 9.5216 30.1795 9.11408C30.1795 8.84598 30.1715 8.56429 30.1533 8.27354C31.6514 9.08511 32.9961 10.2328 34.0811 11.637C35.3965 13.3394 36.3062 15.3872 36.7118 17.5592C36.8412 18.2527 37.4007 18.7622 38.0487 18.7621L39.6762 18.7619V24.643ZM17.2633 3.18295C19.1282 3.18295 20.6527 4.84113 20.6527 6.88863C20.6527 7.40027 20.5546 7.90439 20.3695 8.36867H14.157C13.9719 7.90422 13.8737 7.40026 13.8737 6.88863C13.8737 4.84104 15.3984 3.18295 17.2633 3.18295Z" fill="white" stroke="white" stroke-width="0.1"/>
<path d="M28.4116 15.8828L28.4116 15.8828C28.815 14.8281 29.8808 14.1218 31.0621 14.1218C32.2433 14.1218 33.3093 14.8281 33.7125 15.8828L28.4116 15.8828ZM28.4116 15.8828C28.2784 16.2312 28.4605 16.6175 28.8155 16.7465M28.4116 15.8828L28.8155 16.7465M28.8155 16.7465C29.17 16.8755 29.5657 16.7001 29.6986 16.3524L28.8155 16.7465ZM29.6986 16.3524C29.9011 15.8229 30.4479 15.4638 31.062 15.4638C31.6761 15.4638 32.223 15.8229 32.4255 16.3524C32.5289 16.6229 32.7913 16.7888 33.0691 16.7888C33.1488 16.7888 33.2297 16.7752 33.3086 16.7465C33.3086 16.7465 33.3086 16.7465 33.3086 16.7465L33.2915 16.6995L29.6986 16.3524Z" fill="white" stroke="white" stroke-width="0.1"/>
<path d="M19.7116 18.5181C19.0601 18.0763 18.2201 17.8056 17.4502 17.5933V14.5143C18.0451 14.5915 18.5484 14.7638 18.9047 14.9765C19.2758 15.1982 19.4733 15.4545 19.4733 15.683C19.4733 16.0548 19.7821 16.354 20.1603 16.354C20.5385 16.354 20.8472 16.0548 20.8472 15.683C20.8472 15.0274 20.4732 14.4413 19.8589 13.9981C19.254 13.5617 18.4127 13.2606 17.4502 13.1628V13.1368C17.4502 12.765 17.1414 12.4657 16.7632 12.4657C16.385 12.4657 16.0763 12.765 16.0763 13.1368V13.1628C15.1138 13.2606 14.2724 13.5617 13.6676 13.9981C13.0533 14.4413 12.6792 15.0274 12.6792 15.683C12.6792 16.6105 13.1508 17.2414 13.8149 17.6918C14.4663 18.1336 15.3063 18.4043 16.0763 18.6166V21.6955C15.4814 21.6184 14.9781 21.4461 14.6218 21.2333C14.2506 21.0117 14.0532 20.7554 14.0532 20.5269C14.0532 20.1551 13.7444 19.8559 13.3662 19.8559C12.988 19.8559 12.6792 20.1551 12.6792 20.5269C12.6792 21.1825 13.0533 21.7686 13.6676 22.2118C14.2724 22.6482 15.1138 22.9492 16.0763 23.0471V23.0731C16.0763 23.4449 16.385 23.7441 16.7632 23.7441C17.1414 23.7441 17.4502 23.4449 17.4502 23.0731V23.0471C18.4127 22.9492 19.254 22.6482 19.8589 22.2118C20.4732 21.7686 20.8472 21.1825 20.8472 20.5269C20.8472 19.5993 20.3757 18.9684 19.7116 18.5181ZM16.0763 14.5143V17.2105C15.3286 16.9782 14.8248 16.757 14.5067 16.5156C14.1827 16.2699 14.0532 16.0051 14.0532 15.683C14.0532 15.4545 14.2506 15.1982 14.6218 14.9765C14.9781 14.7638 15.4814 14.5915 16.0763 14.5143ZM18.9047 21.2334C18.5484 21.4462 18.045 21.6185 17.4502 21.6956V18.9994C18.1979 19.2317 18.7016 19.4529 19.0198 19.6943C19.3437 19.94 19.4733 20.2049 19.4733 20.527C19.4733 20.7554 19.2758 21.0117 18.9047 21.2334Z" fill="white" stroke="white" stroke-width="0.1"/>
</svg>
